#!OML:ASF E:\Steps\Project 1\Capture day 1\Session 2\Subject.ASF
:FULLY-SPECIFIED
:DEGREES
319
root 6.51487 17.2308 18.5631 -152.143 -1.37797 182.423
lowerback -13.2573 -0.776159 -5.56631
upperback 3.80215 -0.180953 1.09329
thorax 11.6899 -0.543881 4.31168
lowerneck -3.06278 2.38818 0.0535013
upperneck 21.5653 0.869816 3.89538
head 7.0599 0.150968 1.24048
rclavicle -1.59028e-015 1.15295e-014
rhumerus -42.8777 -18.1164 -68.1501
rradius 48.7903
rwrist -6.6263
rhand -5.33511 -54.4116
rfingers 7.12502
rthumb 20.4714 -83.3524
lclavicle -1.59028e-015 1.15295e-014
lhumerus -24.385 -6.20588 68.1132
lradius 44.0813
lwrist 7.08396
lhand -23.4219 -13.33
lfingers 7.12502
lthumb 3.03568 16.6282
rfemur -21.0958 12.6669 -14.6745
rtibia 16.2832
rfoot 1.46955 -29.5785
rtoes 7.6086
lfemur -50.7505 -2.58062 -3.43404
ltibia 39.672
lfoot -15.0356 2.28063
ltoes -31.2552
320
root 6.41541 17.2704 18.5347 -152.134 -0.823114 182.673
lowerback -13.3232 -0.749374 -5.44062
upperback 3.76888 -0.156315 1.02905
thorax 11.6858 -0.518807 4.17516
lowerneck -2.77414 0.388746 0.236534
upperneck 21.5525 1.6046 3.18681
head 6.99987 1.64699 1.17297
rclavicle -1.09332e-014 -2.94201e-014
rhumerus -43.4275 -18.2425 -68.0982
rradius 48.6576
rwrist -6.50519
rhand -5.15695 -54.2779
rfingers 7.12502
rthumb 20.6426 -83.2002
lclavicle -1.09332e-014 -2.94201e-014
lhumerus -24.5301 -6.15976 67.9384
lradius 44.4569
lwrist 7.62504
lhand -23.3891 -14.0259
lfingers 7.12502
lthumb 3.06729 15.9318
rfemur -22.2641 12.2507 -14.5584
rtibia 17.6666
rfoot 2.68298 -29.3749
rtoes 12.4785
lfemur -50.0484 -2.39352 -3.80366
ltibia 38.8573
lfoot -14.776 2.94556
ltoes -33.8037
321
root 6.3249 17.305 18.5247 -151.776 -0.683873 182.713
lowerback -13.5077 -0.932512 -5.47763
upperback 3.63524 -0.383587 1.01976
thorax 11.6716 -0.623879 4.13355
lowerneck -2.65096 0.505615 0.202515
upperneck 21.4249 1.75974 3.16775
head 6.93404 1.7091 1.17831
rclavicle -5.96354e-016 -1.98785e-015
rhumerus -43.7744 -18.3317 -68.0822
rradius 48.4455
rwrist -6.31305
rhand -5.30368 -54.8143
rfingers 7.12502
rthumb 20.5016 -83.7518
lclavicle -5.96354e-016 -1.98785e-015
lhumerus -24.5451 -5.93838 67.7922
lradius 44.5516
lwrist 7.9283
lhand -23.593 -15.3741
lfingers 7.12502
lthumb 2.87046 14.5863
rfemur -23.5685 11.1694 -14.4218
rtibia 19.2118
rfoot 2.61532 -29.3739
rtoes 12.4606
lfemur -50.1267 -2.1894 -4.31618
ltibia 38.3932
lfoot -14.4015 3.01645
ltoes -35.2587
322
root 6.22772 17.3542 18.4799 -152.55 -0.327231 182.768
lowerback -13.0775 -0.952096 -5.48681
upperback 3.95846 -0.395543 0.958443
thorax 11.7843 -0.62838 4.06975
lowerneck -2.61782 0.577623 0.139002
upperneck 21.3931 1.85049 3.20799
head 6.91532 1.74716 1.20654
rclavicle 5.36719e-015 3.18055e-015
rhumerus -44.1253 -18.316 -68.1854
rradius 48.5042
rwrist -6.41104
rhand -5.22782 -55.2771
rfingers 7.12502
rthumb 20.5745 -84.2068
lclavicle 5.36719e-015 3.18055e-015
lhumerus -24.5023 -5.90653 67.694
lradius 44.915
lwrist 8.1747
lhand -23.6546 -15.6475
lfingers 7.12502
lthumb 2.81091 14.3138
rfemur -23.6605 10.7292 -13.8686
rtibia 20.5674
rfoot 1.91919 -29.4332
rtoes 11.2044
lfemur -48.4716 -2.45543 -4.85509
ltibia 37.343
lfoot -14.191 2.9751
ltoes -33.3766
323
root 6.14941 17.3884 18.4889 -151.958 -0.716867 182.459
lowerback -13.3658 -1.2147 -5.74534
upperback 3.77558 -0.712648 0.914997
thorax 11.7905 -0.802807 4.09233
lowerneck -2.56305 0.548386 0.0882666
upperneck 21.3827 1.79234 3.33208
head 6.90133 1.72536 1.2505
rclavicle -6.36111e-015 -6.36111e-015
rhumerus -44.6178 -18.6589 -68.1357
rradius 48.447
rwrist -6.05893
rhand -4.83947 -54.8266
rfingers 7.12502
rthumb 20.9476 -83.7155
lclavicle -6.36111e-015 -6.36111e-015
lhumerus -24.4056 -6.2609 67.5885
lradius 45.5941
lwrist 8.46145
lhand -23.445 -14.1699
lfingers 7.12502
lthumb 3.01336 15.7885
rfemur -24.9865 9.07006 -13.7225
rtibia 22.523
rfoot 0.55844 -30.0229
rtoes 12.5345
lfemur -49.2198 -2.82898 -5.33235
ltibia 37.1445
lfoot -13.9427 2.62583
ltoes -30.689
324
root 6.04524 17.4228 18.4222 -152.698 -0.131918 182.744
lowerback -13.4598 -1.19327 -5.41636
upperback 4.00724 -0.703202 0.907806
thorax 12.1028 -0.776822 3.90215
lowerneck -2.06149 0.576441 -0.405362
upperneck 21.3248 1.86894 3.53968
head 6.78548 1.74648 1.39874
rclavicle -4.37326e-015 8.74653e-015
rhumerus -45.206 -18.3832 -67.9787
rradius 48.3972
rwrist -6.00266
rhand -4.7773 -54.9521
rfingers 7.12502
rthumb 21.0074 -83.8343
lclavicle -4.37326e-015 8.74653e-015
lhumerus -24.8911 -6.17546 67.5949
lradius 46.065
lwrist 8.77881
lhand -23.1208 -13.5396
lfingers 7.12502
lthumb 3.32646 16.4142
rfemur -25.3109 8.78677 -12.9393
rtibia 24.0973
rfoot 0.225749 -30.1423
rtoes 12.0141
lfemur -47.3315 -3.04765 -5.62722
ltibia 35.7767
lfoot -13.7909 2.94951
ltoes -28.8241
325
root 5.95313 17.4552 18.3721 -153.171 0.153207 182.813
lowerback -12.9945 -1.11239 -5.18817
upperback 4.12439 -0.636946 0.758684
thorax 11.9414 -0.71656 3.62399
lowerneck -2.45737 0.582217 -0.205347
upperneck 21.4675 1.83962 3.52859
head 6.90411 1.74519 1.36701
rclavicle 2.06736e-014 1.70955e-014
rhumerus -45.8894 -18.7205 -67.8946
rradius 48.5282
rwrist -6.09865
rhand -4.80161 -55.3847
rfingers 7.12502
rthumb 20.984 -84.2695
lclavicle 2.06736e-014 1.70955e-014
lhumerus -24.8907 -6.4652 67.5292
lradius 46.6121
lwrist 8.91419
lhand -23.2423 -12.4531
lfingers 7.12502
lthumb 3.20912 17.5024
rfemur -25.738 8.36523 -12.2896
rtibia 25.8406
rfoot -0.84255 -30.4178
rtoes 12.3484
lfemur -46.0427 -3.37202 -6.03774
ltibia 34.7564
lfoot -13.6205 3.32033
ltoes -28.3975
326
root 5.89754 17.475 18.422 -151.761 -0.950464 182.179
lowerback -13.6987 -1.76475 -5.82103
upperback 3.6588 -1.4191 0.935034
thorax 11.9452 -1.14345 3.98675
lowerneck -2.28096 0.630911 -0.232919
upperneck 21.2625 1.92301 3.34372
head 6.80693 1.75645 1.31017
rclavicle 2.10712e-014 6.36111e-015
rhumerus -46.1919 -18.7586 -67.8009
rradius 48.5914
rwrist -6.26931
rhand -5.14052 -55.0801
rfingers 7.12502
rthumb 20.6584 -84.0006
lclavicle 2.10712e-014 6.36111e-015
lhumerus -24.7053 -5.97384 67.5921
lradius 46.5721
lwrist 7.94882
lhand -22.9661 -13.4058
lfingers 7.12502
lthumb 3.47582 16.5456
rfemur -27.6885 6.13145 -12.1916
rtibia 28.3555
rfoot -3.41389 -31.1424
rtoes 15.8116
lfemur -48.4353 -3.61727 -6.68709
ltibia 35.3556
lfoot -13.2397 2.75984
ltoes -29.2065
327
root 5.81365 17.5059 18.3961 -152.007 -1.12865 181.967
lowerback -13.4529 -1.88407 -5.76954
upperback 3.63741 -1.59391 0.820817
thorax 11.7887 -1.21279 3.79176
lowerneck -2.06271 0.575667 -0.126337
upperneck 21.2885 1.87517 3.26117
head 6.78004 1.74188 1.26097
rclavicle 5.1684e-015 -1.03368e-014
rhumerus -46.8306 -18.861 -67.7943
rradius 48.5442
rwrist -6.34571
rhand -5.41455 -54.5892
rfingers 7.12502
rthumb 20.3951 -83.5382
lclavicle 5.1684e-015 -1.03368e-014
lhumerus -24.6143 -6.04518 67.5632
lradius 46.4114
lwrist 7.38471
lhand -22.5689 -13.2587
lfingers 7.12502
lthumb 3.8594 16.6861
rfemur -28.1506 5.32883 -11.6329
rtibia 30.2643
rfoot -4.62525 -31.3166
rtoes 16.6922
lfemur -47.8316 -4.02515 -7.30799
ltibia 34.7109
lfoot -13.0272 2.50377
ltoes -27.5014
328
root 5.7493 17.5246 18.4194 -151.009 -1.92223 181.382
lowerback -13.8717 -2.47867 -6.10646
upperback 3.05728 -2.3193 0.905133
thorax 11.4858 -1.55814 3.89877
lowerneck -1.38985 0.674792 -0.508832
upperneck 21.1118 2.06224 3.3563
head 6.59666 1.81528 1.35593
rclavicle 1.07344e-014 -2.38542e-015
rhumerus -47.5255 -18.5237 -67.6221
rradius 48.4291
rwrist -6.1947
rhand -5.25701 -54.6588
rfingers 7.12502
rthumb 20.5465 -83.5915
lclavicle 1.07344e-014 -2.38542e-015
lhumerus -25.2303 -5.87141 67.7898
lradius 46.4074
lwrist 7.20479
lhand -22.5674 -13.5879
lfingers 7.12502
lthumb 3.86082 16.3568
rfemur -29.8234 3.57395 -11.4274
rtibia 32.562
rfoot -5.26856 -31.9828
rtoes 16.8598
lfemur -49.3461 -4.5171 -7.92521
ltibia 34.849
lfoot -12.7451 1.7041
ltoes -23.8318
329
root 5.66162 17.5538 18.3764 -151.619 -1.97419 181.432
lowerback -13.7743 -2.47519 -5.99376
upperback 3.4065 -2.3479 1.01332
thorax 11.8281 -1.58723 3.94463
lowerneck -1.67667 0.644288 -0.810624
upperneck 21.0636 1.97809 3.48875
head 6.62789 1.74931 1.44599
rclavicle 1.19271e-014 1.82882e-014
rhumerus -47.7571 -18.8883 -67.2483
rradius 48.3121
rwrist -5.97815
rhand -4.88479 -55.0533
rfingers 7.12502
rthumb 20.9041 -83.947
lclavicle 1.19271e-014 1.82882e-014
lhumerus -25.1017 -5.79684 68.2499
lradius 46.4715
lwrist 6.95006
lhand -21.6136 -14.2901
lfingers 7.12502
lthumb 4.78192 15.636
rfemur -30.0019 3.48411 -10.545
rtibia 34.3026
rfoot -5.32561 -32.3177
rtoes 16.7577
lfemur -48.0501 -4.85163 -8.35423
ltibia 33.9373
lfoot -12.4765 1.77937
ltoes -24.5053
330
root 5.57359 17.572 18.3337 -151.857 -1.86104 181.553
lowerback -13.7124 -2.33262 -5.55949
upperback 3.48664 -2.22895 0.923797
thorax 11.8402 -1.49821 3.62899
lowerneck -2.27529 0.478562 -0.805027
upperneck 21.5115 1.73115 3.6087
head 6.8819 1.65152 1.48549
rclavicle -4.37326e-015 6.36111e-015
rhumerus -48.3826 -19.3113 -67.0593
rradius 48.3087
rwrist -6.15662
rhand -4.93948 -55.2821
rfingers 7.12502
rthumb 20.8516 -84.1816
lclavicle -4.37326e-015 6.36111e-015
lhumerus -24.8972 -6.12157 68.4343
lradius 46.4588
lwrist 6.90123
lhand -22.9043 -13.3713
lfingers 7.12502
lthumb 3.53548 16.5791
rfemur -30.7455 3.29788 -9.70355
rtibia 36.2137
rfoot -5.47135 -32.2831
rtoes 15.6132
lfemur -47.1981 -5.00637 -8.70167
ltibia 33.1552
lfoot -12.2081 2.13504
ltoes -27.2192
331
root 5.49789 17.5937 18.307 -152.041 -2.02665 181.424
lowerback -13.8697 -2.34983 -5.31275
upperback 3.7465 -2.27006 0.758549
thorax 12.2144 -1.50759 3.28845
lowerneck -2.75377 0.360864 -0.613078
upperneck 21.6067 1.51012 3.62989
head 7.00368 1.55516 1.45232
rclavicle -2.38542e-015 3.18055e-015
rhumerus -48.5643 -19.982 -67.0984
rradius 48.1327
rwrist -6.32429
rhand -4.93313 -55.498
rfingers 7.12502
rthumb 20.8577 -84.3968
lclavicle -2.38542e-015 3.18055e-015
lhumerus -24.6214 -6.17437 68.5115
lradius 46.5462
lwrist 6.76643
lhand -23.2641 -13.4031
lfingers 7.12502
lthumb 3.18803 16.5528
rfemur -31.4598 2.92336 -8.96864
rtibia 38.2324
rfoot -6.07605 -31.8339
rtoes 12.4788
lfemur -46.625 -5.39745 -9.13625
ltibia 32.487
lfoot -11.9595 1.94226
ltoes -25.6489
332
root 5.42632 17.612 18.281 -152.1 -2.00745 181.274
lowerback -13.9654 -2.53251 -5.51284
upperback 3.4863 -2.486 0.880561
thorax 12.0153 -1.6176 3.48464
lowerneck -1.90753 0.33021 -0.858088
upperneck 21.583 1.58294 3.51064
head 6.84469 1.57932 1.45154
rclavicle 1.43125e-014 -7.95139e-016
rhumerus -49.4287 -19.6019 -66.6152
rradius 47.9864
rwrist -6.32919
rhand -4.7046 -55.3076
rfingers 7.12502
rthumb 21.0772 -84.1821
lclavicle 1.43125e-014 -7.95139e-016
lhumerus -25.7242 -5.96648 69.0511
lradius 46.8714
lwrist 6.51394
lhand -23.4218 -13.7393
lfingers 7.12502
lthumb 3.03572 16.2188
rfemur -32.4304 2.65307 -8.31546
rtibia 40.2504
rfoot -6.7871 -31.1244
rtoes 9.15781
lfemur -46.1807 -5.63394 -9.60366
ltibia 31.8949
lfoot -11.7471 1.77501
ltoes -23.2245
